<?xml version="1.0" encoding="utf-8"?>
<!-- Generator: Adobe Illustrator 17.0.0, SVG Export Plug-In . SVG Version: 6.00 Build 0)  -->
<!DOCTYPE svg PUBLIC "-//W3C//DTD SVG 1.1//EN" "http://www.w3.org/Graphics/SVG/1.1/DTD/svg11.dtd">
<svg version="1.1" id="Capa_1" xmlns="http://www.w3.org/2000/svg" xmlns:xlink="http://www.w3.org/1999/xlink" x="0px" y="0px"
	 width="398.14px" height="386px" viewBox="0 0 398.14 386" enable-background="new 0 0 398.14 386" xml:space="preserve">
<rect x="-7.5" y="-3" fill="#FFFFFF" width="405.64" height="394.333"/>
<polygon fill="#1D1D1B" points="221.373,161.836 205.119,161.836 205.119,146.612 178.264,146.612 178.264,161.836 162.011,161.836 
	152.588,161.836 152.588,168.166 162.011,168.166 162.011,205.444 221.373,205.444 221.373,168.166 230.795,168.166 
	230.795,161.836 "/>
<rect x="152.266" y="111.564" fill="#150A00" width="79.087" height="40.474"/>
<rect x="161.893" y="110.601" fill="#A39764" width="59.598" height="43.108"/>
<g>
	<g>
		<g enable-background="new    ">
			<g enable-background="new    ">
				<defs>
					<path id="SVGID_1_" enable-background="new    " d="M278.46,175l3.08,3.975c1.037,1.338,1.64,2.906,1.659,4.59l-3.08-3.975
						C280.1,177.907,279.497,176.339,278.46,175z"/>
				</defs>
				<clipPath id="SVGID_2_">
					<use xlink:href="#SVGID_1_"  overflow="visible"/>
				</clipPath>
				<g clip-path="url(#SVGID_2_)" enable-background="new    ">
					<path fill="#71A328" d="M278.46,175l3.08,3.975c0.753,0.972,1.277,2.064,1.515,3.234l-3.08-3.975
						C279.737,177.065,279.212,175.972,278.46,175"/>
					<path fill="#6E9E27" d="M279.975,178.235l3.08,3.975c0.09,0.442,0.139,0.894,0.144,1.356l-3.08-3.975
						C280.113,179.129,280.064,178.676,279.975,178.235"/>
				</g>
			</g>
			<g enable-background="new    ">
				<defs>
					<path id="SVGID_3_" enable-background="new    " d="M105.214,324.477l-3.08-3.975c2.07,2.672,5.87,4.424,10.192,4.356
						l3.08,3.975C111.084,328.901,107.285,327.149,105.214,324.477z"/>
				</defs>
				<clipPath id="SVGID_4_">
					<use xlink:href="#SVGID_3_"  overflow="visible"/>
				</clipPath>
				<g clip-path="url(#SVGID_4_)" enable-background="new    ">
					<path fill="#5C8521" d="M112.326,324.858l3.08,3.975c-4.322,0.069-8.121-1.684-10.192-4.356l-3.08-3.975
						C104.204,323.174,108.004,324.926,112.326,324.858"/>
				</g>
			</g>
			<g>
				<polygon fill="#6C9C27" points="280.119,179.59 283.199,183.565 284.668,317.009 281.588,313.034 				"/>
			</g>
			<g>
				<polygon fill="#598020" points="269.948,322.352 273.028,326.327 115.406,328.833 112.326,324.858 				"/>
			</g>
			<g enable-background="new    ">
				<defs>
					<path id="SVGID_5_" enable-background="new    " d="M281.588,313.034l3.08,3.975c0.056,5.05-5.154,9.215-11.639,9.318
						l-3.08-3.975C276.433,322.249,281.643,318.084,281.588,313.034z"/>
				</defs>
				<clipPath id="SVGID_6_">
					<use xlink:href="#SVGID_5_"  overflow="visible"/>
				</clipPath>
				<g clip-path="url(#SVGID_6_)" enable-background="new    ">
					<path fill="#6E9E27" d="M281.588,313.034l3.08,3.975c0,0.022,0,0.043,0,0.065l-3.08-3.975
						C281.588,313.077,281.588,313.055,281.588,313.034"/>
					<path fill="#6A9926" d="M281.588,313.099l3.08,3.975c0.001,0.388-0.029,0.771-0.089,1.147l-3.08-3.975
						C281.559,313.869,281.589,313.487,281.588,313.099"/>
					<path fill="#679425" d="M281.499,314.245l3.08,3.975c-0.058,0.364-0.143,0.723-0.254,1.073l-3.08-3.975
						C281.356,314.968,281.441,314.61,281.499,314.245"/>
					<path fill="#638F23" d="M281.245,315.318l3.08,3.975c-0.121,0.381-0.272,0.753-0.452,1.115l-3.08-3.975
						C280.973,316.072,281.124,315.7,281.245,315.318"/>
					<path fill="#608A22" d="M280.793,316.433l3.08,3.975c-0.226,0.455-0.498,0.893-0.81,1.31l-3.08-3.975
						C280.295,317.326,280.566,316.888,280.793,316.433"/>
					<path fill="#5C8521" d="M279.983,317.743l3.08,3.975c-2.02,2.699-5.749,4.541-10.035,4.609l-3.08-3.975
						C274.234,322.284,277.962,320.442,279.983,317.743"/>
				</g>
			</g>
			<g>
				<path fill="#99DD37" d="M268.278,170.645c6.485-0.103,11.785,3.904,11.84,8.945l1.469,133.443
					c0.056,5.05-5.154,9.215-11.639,9.318l-157.622,2.506c-6.485,0.103-11.794-3.895-11.849-8.945l-1.469-133.443
					c-0.055-5.041,5.163-9.216,11.648-9.319L268.278,170.645z"/>
			</g>
		</g>
	</g>
</g>
<circle fill="#1D1D1B" cx="191.809" cy="135.688" r="21.201"/>
<circle fill="#1D1D1B" cx="191.809" cy="135.688" r="21.201"/>
<circle fill="#B7B0AE" cx="191.809" cy="135.688" r="18.021"/>
<circle fill="#1D1D1B" cx="131.142" cy="131.801" r="30.034"/>
<circle fill="#FFFFFF" stroke="#1D1D1B" stroke-miterlimit="10" cx="131.142" cy="131.801" r="25.794"/>
<circle fill="#3FFFD5" cx="131.142" cy="131.801" r="12.956"/>
<circle fill="#1D1D1B" cx="252.539" cy="131.801" r="30.034"/>
<circle fill="#FFFFFF" stroke="#1D1D1B" stroke-miterlimit="10" cx="252.539" cy="131.801" r="25.794"/>
<circle fill="#3FFFD5" cx="252.539" cy="131.801" r="12.956"/>
<circle fill="#FFFFFF" cx="127.206" cy="127.502" r="6.89"/>
<circle fill="#FFFFFF" cx="127.697" cy="139.133" r="3.445"/>
<circle fill="#FFFFFF" cx="249.464" cy="127.708" r="6.89"/>
<circle fill="#FFFFFF" cx="249.954" cy="139.339" r="3.445"/>
<circle fill="#1D1D1B" cx="166.251" cy="114.487" r="2.473"/>
<circle fill="#1D1D1B" cx="215.955" cy="114.038" r="2.473"/>
<circle fill="#1D1D1B" cx="215.955" cy="149.115" r="2.473"/>
<circle fill="#1D1D1B" cx="166.251" cy="149.115" r="2.473"/>
<g>
	<g>
		<g enable-background="new    ">
			<g enable-background="new    ">
				<defs>
					<path id="SVGID_7_" enable-background="new    " d="M201.73,216.714l1.644,1.932c2.266,2.664,3.559,6.163,3.367,9.931
						c-0.4,7.859-7.094,13.912-14.954,13.522c-4.081-0.202-7.674-2.105-10.127-4.99l-1.644-1.932
						c2.454,2.884,6.046,4.787,10.127,4.99c7.861,0.39,14.554-5.662,14.954-13.522C205.289,222.878,203.996,219.378,201.73,216.714z
						"/>
				</defs>
				<clipPath id="SVGID_8_">
					<use xlink:href="#SVGID_7_"  overflow="visible"/>
				</clipPath>
				<g clip-path="url(#SVGID_8_)" enable-background="new    ">
					<path fill="#96112A" d="M201.73,216.714l1.644,1.932c1.254,1.474,2.209,3.204,2.781,5.093l-1.644-1.932
						C203.94,219.918,202.984,218.188,201.73,216.714"/>
					<path fill="#911129" d="M204.511,221.807l1.644,1.932c0.271,0.897,0.456,1.829,0.544,2.788l-1.644-1.932
						C204.967,223.637,204.782,222.704,204.511,221.807"/>
					<path fill="#8C1028" d="M205.055,224.595l1.644,1.932c0.062,0.672,0.077,1.357,0.042,2.05c-0.004,0.087-0.01,0.173-0.016,0.26
						l-1.644-1.932c0.006-0.086,0.011-0.173,0.016-0.26C205.133,225.952,205.118,225.267,205.055,224.595"/>
					<path fill="#881026" d="M205.082,226.905l1.644,1.932c-0.05,0.729-0.155,1.442-0.309,2.135l-1.644-1.932
						C204.927,228.347,205.032,227.634,205.082,226.905"/>
					<path fill="#830F25" d="M204.773,229.04l1.644,1.932c-0.161,0.724-0.377,1.425-0.643,2.101l-1.644-1.932
						C204.395,230.466,204.611,229.764,204.773,229.04"/>
					<path fill="#7E0F24" d="M204.13,231.141l1.644,1.932c-0.319,0.811-0.71,1.585-1.164,2.314l-1.644-1.932
						C203.42,232.726,203.811,231.953,204.13,231.141"/>
					<path fill="#7A0E22" d="M202.966,233.455l1.644,1.932c-2.65,4.251-7.465,6.978-12.822,6.712
						c-4.081-0.202-7.674-2.105-10.127-4.99l-1.644-1.932c2.454,2.884,6.046,4.787,10.127,4.99
						C195.5,240.433,200.315,237.707,202.966,233.455"/>
				</g>
			</g>
			<g>
				<path fill="#CB1739" d="M191.591,211.721c7.861,0.39,13.906,7.074,13.506,14.925c-0.4,7.859-7.094,13.912-14.954,13.522
					c-7.852-0.39-13.897-7.074-13.497-14.933C177.046,217.384,183.74,211.331,191.591,211.721z"/>
			</g>
		</g>
	</g>
</g>
<g>
	<path fill="#FFFFFF" d="M135.821,256.156c4.392,26.983,27.795,47.584,56.02,47.584c28.224,0,51.628-20.601,56.02-47.584H135.821z"
		/>
	<path fill="#EA1C53" d="M177.69,279.948c-9.981,0-18.619,4.077-22.898,10.027c9.942,8.576,22.888,13.765,37.049,13.765
		c3.729,0,7.371-0.369,10.9-1.056c0.452-1.37,0.717-2.793,0.717-4.262C203.457,288.219,191.921,279.948,177.69,279.948z"/>
</g>
<g>
	<defs>
		<path id="SVGID_9_" d="M228.138,63.109c0,23.207-18.813,42.02-42.02,42.02c-16.353,0-30.524-9.341-37.468-22.979
			c-2.911-5.716-4.552-12.187-4.552-19.041c0-23.207,18.813-42.02,42.02-42.02S228.138,39.902,228.138,63.109z"/>
	</defs>
	<clipPath id="SVGID_10_">
		<use xlink:href="#SVGID_9_"  overflow="visible"/>
	</clipPath>
	<g clip-path="url(#SVGID_10_)">
		
			<image overflow="visible" width="3840" height="2160" xlink:href="7C4EC65D.jpg"  transform="matrix(0.0418 0 0 0.0418 105.847 18.1001)">
		</image>
	</g>
</g>
<polyline fill="#1F97C9" points="170.609,96.879 186.118,114.038 198.383,96.879 "/>
<circle fill="none" stroke="#1D1D1B" stroke-width="2" stroke-miterlimit="10" cx="191.692" cy="192.4" r="177.026"/>
</svg>
